<?xml version="1.0" encoding="UTF-8"?>
<svg id="Capa_2" data-name="Capa 2" xmlns="http://www.w3.org/2000/svg" viewBox="0 0 287 100.36">
  <defs>
    <style>
      .cls-1 {
        fill: #284057;
        stroke-width: 0px;
      }
    </style>
  </defs>
  <g id="Capa_1-2" data-name="Capa 1">
    <g>
      <g>
        <path class="cls-1" d="m136.51,48.34v12.02c0,.58-.32.9-.9.9h-3.61c-.58,0-.9-.32-.9-.9v-2.05c-1.7,2.27-4.33,3.45-7.69,3.45-7.04,0-12.41-5.7-12.41-13.13s5.52-13.13,13.13-13.13c5.74,0,10.61,3.54,12.09,8.16.22.61-.11,1.01-.76,1.01h-4.26c-.51,0-.79-.22-1.05-.65-1.05-1.62-3.36-2.89-6.03-2.89-4.47,0-7.36,3-7.36,7.51,0,4.87,3.1,7.87,7.36,7.87,2.71,0,5.42-1.13,6.45-4.01h-5.44c-.58,0-.9-.32-.9-.9v-3.25c0-.58.32-.9.9-.9h10.46c.58,0,.9.32.9.9Z"/>
        <path class="cls-1" d="m139.21,52.23c0-5.38,4.26-9.53,9.56-9.53s9.56,4.15,9.56,9.53-4.26,9.53-9.56,9.53-9.56-4.15-9.56-9.53Zm13.71,0c0-2.56-1.8-4.26-4.15-4.26s-4.15,1.7-4.15,4.26,1.8,4.26,4.15,4.26,4.15-1.7,4.15-4.26Z"/>
        <path class="cls-1" d="m160.5,52.23c0-5.38,4.26-9.53,9.56-9.53s9.56,4.15,9.56,9.53-4.26,9.53-9.56,9.53-9.56-4.15-9.56-9.53Zm13.71,0c0-2.56-1.8-4.26-4.15-4.26s-4.15,1.7-4.15,4.26,1.8,4.26,4.15,4.26,4.15-1.7,4.15-4.26Z"/>
        <path class="cls-1" d="m201.2,36.9v23.45c0,.58-.32.9-.9.9h-3.61c-.58,0-.9-.32-.9-.9v-.78c-1.21,1.38-2.96,2.19-5.38,2.19-4.73,0-8.62-4.15-8.62-9.53s3.9-9.53,8.62-9.53c2.41,0,4.17.81,5.38,2.19v-8c0-.58.32-.9.9-.9h3.61c.58,0,.9.32.9.9Zm-5.41,15.34c0-2.71-1.8-4.4-4.29-4.4s-4.29,1.7-4.29,4.4,1.8,4.4,4.29,4.4,4.29-1.7,4.29-4.4Z"/>
        <path class="cls-1" d="m224.97,61.25h-1.98c-.42,0-.73-.22-.87-.62l-1.8-5.03h-11.26l-1.8,5.03c-.14.41-.45.62-.87.62h-1.98c-.57,0-.81-.33-.62-.87l8.79-23.76c.14-.4.46-.62.88-.62h2.47c.42,0,.74.23.88.62l8.79,23.76c.19.54-.05.87-.62.87Zm-5.78-8.79l-4.5-12.54-4.5,12.54h9Z"/>
        <path class="cls-1" d="m247.68,52.23c0,5.35-4.14,9.47-9.14,9.47-3.04,0-5.37-1.35-6.81-3.51v13.44c0,.5-.27.77-.77.77h-1.61c-.5,0-.77-.27-.77-.77v-27.66c0-.5.27-.77.77-.77h1.61c.5,0,.77.27.77.77v2.29c1.44-2.16,3.77-3.51,6.81-3.51,5,0,9.14,4.12,9.14,9.47Zm-3.14,0c0-3.68-2.78-6.46-6.4-6.46s-6.4,2.78-6.4,6.46,2.78,6.46,6.4,6.46,6.4-2.78,6.4-6.46Z"/>
        <path class="cls-1" d="m270.52,52.23c0,5.35-4.14,9.47-9.14,9.47-3.04,0-5.37-1.35-6.81-3.51v13.44c0,.5-.27.77-.77.77h-1.61c-.5,0-.77-.27-.77-.77v-27.66c0-.5.27-.77.77-.77h1.61c.5,0,.77.27.77.77v2.29c1.44-2.16,3.77-3.51,6.81-3.51,5,0,9.14,4.12,9.14,9.47Zm-3.14,0c0-3.68-2.78-6.46-6.4-6.46s-6.4,2.78-6.4,6.46,2.78,6.46,6.4,6.46,6.4-2.78,6.4-6.46Z"/>
        <path class="cls-1" d="m287,56.35c0,3.26-2.89,5.35-6.88,5.35-3.71,0-6.46-1.82-6.84-5.05-.04-.53.26-.8.76-.8h1.59c.46,0,.67.26.81.7.32,1.64,1.87,2.25,3.68,2.25,2.08,0,3.74-.75,3.74-2.44,0-4.09-10.31-1.43-10.31-8.25,0-3.24,2.89-5.35,6.57-5.35,3.38,0,6.1,1.82,6.48,5.05.04.53-.26.8-.76.8h-1.59c-.46,0-.67-.26-.81-.71-.31-1.63-1.81-2.24-3.32-2.24-1.77,0-3.43.75-3.43,2.44,0,4.1,10.31,1.43,10.31,8.25Z"/>
      </g>
      <polygon class="cls-1" points="112.76 12.63 113.72 12.03 112.73 10.47 111.97 10.94 112.42 6.77 104.28 12.21 102.82 16.61 58.34 44.22 58.26 41.83 53.63 48.25 61.43 46.91 59.31 45.78 103.9 18.12 108.45 18.92 117.14 14.39 112.76 12.63"/>
      <path class="cls-1" d="m97.19,30.64c-.98-2.33-3.78-3.27-5.97-2l-7.52,4.34c2.68,5.15,4.2,11,4.2,17.2s-1.52,12.05-4.2,17.2l7.52,4.34c2.19,1.26,4.99.32,5.97-2,2.52-6.01,3.92-12.61,3.92-19.54s-1.4-13.53-3.92-19.54Z"/>
      <path class="cls-1" d="m48.88,12.88V4.19c0-2.53-2.23-4.48-4.74-4.16C30.37,1.78,18.34,9.05,10.33,19.56c-1.53,2.01-.95,4.91,1.24,6.18l7.52,4.34c6.35-9.92,17.27-16.65,29.79-17.2Z"/>
      <path class="cls-1" d="m17.41,32.98l-7.52-4.34c-2.19-1.26-4.99-.32-5.97,2-2.52,6.01-3.92,12.61-3.92,19.54s1.39,13.53,3.92,19.54c.98,2.33,3.78,3.27,5.97,2l7.52-4.34c-2.68-5.15-4.2-11-4.2-17.2s1.52-12.05,4.2-17.2Z"/>
      <path class="cls-1" d="m19.09,70.28l-7.52,4.34c-2.19,1.26-2.77,4.17-1.24,6.18,8.01,10.51,20.04,17.78,33.8,19.53,2.51.32,4.74-1.63,4.74-4.16v-8.68c-12.52-.55-23.43-7.28-29.79-17.2Z"/>
      <path class="cls-1" d="m52.23,87.48v8.68c0,2.53,2.23,4.48,4.74,4.16,13.76-1.74,25.79-9.02,33.8-19.53,1.53-2.01.95-4.91-1.24-6.18l-7.52-4.34c-6.35,9.92-17.27,16.65-29.79,17.2Z"/>
      <g>
        <path class="cls-1" d="m90.78,19.56C82.77,9.05,70.73,1.78,56.97.03c-2.51-.32-4.74,1.63-4.74,4.16v8.68c11.76.52,22.09,6.48,28.57,15.42l10.8-6.7c-.09-.71-.36-1.42-.83-2.03Z"/>
        <path class="cls-1" d="m71.47,50.18c0,11.55-9.36,20.91-20.91,20.91s-20.91-9.36-20.91-20.91,9.36-20.91,20.91-20.91c6.55,0,12.39,3.01,16.23,7.73l7.66-4.75c-5.45-7.25-14.12-11.94-23.89-11.94-16.5,0-29.88,13.38-29.88,29.88s13.38,29.88,29.88,29.88,29.88-13.38,29.88-29.88c0-4.86-1.17-9.45-3.23-13.51l-7.66,4.75c1.23,2.67,1.92,5.63,1.92,8.76Z"/>
        <path class="cls-1" d="m56.78,49.42c.03.25.05.5.05.76,0,3.47-2.81,6.27-6.27,6.27s-6.27-2.81-6.27-6.27,2.81-6.27,6.27-6.27c1.26,0,2.42.37,3.41,1.01l2.93-4.07.74-1.02c-2.01-1.38-4.45-2.19-7.08-2.19-6.93,0-12.55,5.62-12.55,12.55s5.62,12.55,12.55,12.55,12.55-5.62,12.55-12.55c0-.62-.05-1.23-.13-1.83l-1.25.21-4.94.85Z"/>
        <path class="cls-1" d="m52.12,47.47c-.46-.27-1-.42-1.57-.42-1.73,0-3.14,1.4-3.14,3.14s1.4,3.14,3.14,3.14,3.14-1.4,3.14-3.14c0-.08,0-.15-.01-.23l-3.82.66,2.27-3.15Z"/>
      </g>
    </g>
  </g>
</svg>